<svg xmlns="http://www.w3.org/2000/svg" xmlns:xlink="http://www.w3.org/1999/xlink" width="150" zoomAndPan="magnify" viewBox="0 0 112.5 37.5" height="50" preserveAspectRatio="xMidYMid meet" version="1.0"><defs><g/><clipPath id="a061f68829"><path d="M 4 3.011719 L 28.652344 3.011719 L 28.652344 33.453125 L 4 33.453125 Z M 4 3.011719 " clip-rule="nonzero"/></clipPath></defs><g clip-path="url(#a061f68829)"><path fill="#040084" d="M 24.605469 19.144531 C 24.648438 23.738281 28.59375 25.269531 28.636719 25.285156 C 28.605469 25.394531 28.007812 27.464844 26.558594 29.605469 C 25.308594 31.457031 24.007812 33.300781 21.960938 33.335938 C 19.949219 33.375 19.304688 32.132812 17.003906 32.132812 C 14.707031 32.132812 13.988281 33.300781 12.082031 33.375 C 10.109375 33.449219 8.605469 31.375 7.339844 29.53125 C 4.761719 25.761719 2.792969 18.878906 5.4375 14.230469 C 6.753906 11.925781 9.101562 10.464844 11.652344 10.425781 C 13.59375 10.390625 15.421875 11.746094 16.609375 11.746094 C 17.792969 11.746094 20.019531 10.113281 22.359375 10.355469 C 23.339844 10.394531 26.085938 10.753906 27.851562 13.367188 C 27.710938 13.453125 24.574219 15.300781 24.605469 19.144531 M 20.828125 7.859375 C 21.875 6.574219 22.582031 4.789062 22.390625 3.011719 C 20.878906 3.074219 19.050781 4.03125 17.964844 5.3125 C 16.992188 6.449219 16.140625 8.265625 16.371094 10.007812 C 18.054688 10.140625 19.777344 9.144531 20.828125 7.859375 " fill-opacity="1" fill-rule="nonzero"/></g><g fill="#040084" fill-opacity="1"><g transform="translate(35.051044, 26.969321)"><g><path d="M 7.265625 0 L 4.53125 -9.625 L 4.453125 -9.625 C 4.578125 -7.988281 4.640625 -6.710938 4.640625 -5.796875 L 4.640625 0 L 1.4375 0 L 1.4375 -13.359375 L 6.25 -13.359375 L 9.046875 -3.875 L 9.109375 -3.875 L 11.84375 -13.359375 L 16.65625 -13.359375 L 16.65625 0 L 13.34375 0 L 13.34375 -5.859375 C 13.34375 -6.160156 13.347656 -6.5 13.359375 -6.875 C 13.367188 -7.25 13.410156 -8.160156 13.484375 -9.609375 L 13.40625 -9.609375 L 10.703125 0 Z M 7.265625 0 "/></g></g><g transform="translate(53.14642, 26.969321)"><g><path d="M 12.8125 -13.359375 L 12.8125 -5.3125 C 12.8125 -3.570312 12.3125 -2.21875 11.3125 -1.25 C 10.320312 -0.289062 8.894531 0.1875 7.03125 0.1875 C 5.21875 0.1875 3.820312 -0.273438 2.84375 -1.203125 C 1.863281 -2.140625 1.375 -3.484375 1.375 -5.234375 L 1.375 -13.359375 L 5 -13.359375 L 5 -5.515625 C 5 -4.578125 5.175781 -3.894531 5.53125 -3.46875 C 5.882812 -3.039062 6.40625 -2.828125 7.09375 -2.828125 C 7.832031 -2.828125 8.363281 -3.035156 8.6875 -3.453125 C 9.019531 -3.878906 9.1875 -4.570312 9.1875 -5.53125 L 9.1875 -13.359375 Z M 12.8125 -13.359375 "/></g></g><g transform="translate(67.311992, 26.969321)"><g><path d="M 10.1875 -4.0625 C 10.1875 -3.226562 9.972656 -2.488281 9.546875 -1.84375 C 9.128906 -1.207031 8.523438 -0.707031 7.734375 -0.34375 C 6.941406 0.0078125 6.007812 0.1875 4.9375 0.1875 C 4.050781 0.1875 3.304688 0.125 2.703125 0 C 2.097656 -0.125 1.472656 -0.34375 0.828125 -0.65625 L 0.828125 -3.875 C 1.515625 -3.519531 2.226562 -3.242188 2.96875 -3.046875 C 3.707031 -2.847656 4.390625 -2.75 5.015625 -2.75 C 5.554688 -2.75 5.953125 -2.84375 6.203125 -3.03125 C 6.453125 -3.21875 6.578125 -3.457031 6.578125 -3.75 C 6.578125 -3.925781 6.523438 -4.082031 6.421875 -4.21875 C 6.316406 -4.363281 6.15625 -4.503906 5.9375 -4.640625 C 5.71875 -4.785156 5.125 -5.070312 4.15625 -5.5 C 3.289062 -5.894531 2.640625 -6.28125 2.203125 -6.65625 C 1.765625 -7.03125 1.4375 -7.457031 1.21875 -7.9375 C 1.007812 -8.414062 0.90625 -8.984375 0.90625 -9.640625 C 0.90625 -10.867188 1.351562 -11.828125 2.25 -12.515625 C 3.144531 -13.203125 4.378906 -13.546875 5.953125 -13.546875 C 7.335938 -13.546875 8.75 -13.226562 10.1875 -12.59375 L 9.078125 -9.8125 C 7.828125 -10.382812 6.75 -10.671875 5.84375 -10.671875 C 5.375 -10.671875 5.03125 -10.585938 4.8125 -10.421875 C 4.601562 -10.253906 4.5 -10.050781 4.5 -9.8125 C 4.5 -9.550781 4.632812 -9.316406 4.90625 -9.109375 C 5.175781 -8.898438 5.910156 -8.519531 7.109375 -7.96875 C 8.265625 -7.445312 9.066406 -6.890625 9.515625 -6.296875 C 9.960938 -5.703125 10.1875 -4.957031 10.1875 -4.0625 Z M 10.1875 -4.0625 "/></g></g><g transform="translate(78.114383, 26.969321)"><g><path d="M 1.4375 0 L 1.4375 -13.359375 L 5.078125 -13.359375 L 5.078125 0 Z M 1.4375 0 "/></g></g><g transform="translate(84.630546, 26.969321)"><g><path d="M 7.390625 -10.59375 C 6.535156 -10.59375 5.863281 -10.238281 5.375 -9.53125 C 4.894531 -8.832031 4.65625 -7.863281 4.65625 -6.625 C 4.65625 -4.050781 5.632812 -2.765625 7.59375 -2.765625 C 8.1875 -2.765625 8.757812 -2.847656 9.3125 -3.015625 C 9.863281 -3.179688 10.421875 -3.378906 10.984375 -3.609375 L 10.984375 -0.5625 C 9.867188 -0.0625 8.609375 0.1875 7.203125 0.1875 C 5.179688 0.1875 3.632812 -0.394531 2.5625 -1.5625 C 1.488281 -2.738281 0.953125 -4.429688 0.953125 -6.640625 C 0.953125 -8.023438 1.210938 -9.238281 1.734375 -10.28125 C 2.253906 -11.332031 3.003906 -12.140625 3.984375 -12.703125 C 4.960938 -13.265625 6.113281 -13.546875 7.4375 -13.546875 C 8.875 -13.546875 10.253906 -13.234375 11.578125 -12.609375 L 10.46875 -9.765625 C 9.96875 -10.003906 9.472656 -10.203125 8.984375 -10.359375 C 8.492188 -10.515625 7.960938 -10.59375 7.390625 -10.59375 Z M 7.390625 -10.59375 "/></g></g></g></svg>