<svg xmlns="http://www.w3.org/2000/svg" xmlns:xlink="http://www.w3.org/1999/xlink" width="150" zoomAndPan="magnify" viewBox="0 0 112.5 37.5" height="50" preserveAspectRatio="xMidYMid meet" version="1.0"><defs><g/><clipPath id="84707f00eb"><path d="M 4.210938 5.863281 L 31.71875 5.863281 L 31.71875 33.367188 L 4.210938 33.367188 Z M 4.210938 5.863281 " clip-rule="nonzero"/></clipPath></defs><g fill="#040084" fill-opacity="1"><g transform="translate(34.659613, 25.347281)"><g><path d="M 9.28125 -3.703125 C 9.28125 -2.941406 9.085938 -2.269531 8.703125 -1.6875 C 8.316406 -1.101562 7.765625 -0.644531 7.046875 -0.3125 C 6.328125 0.0078125 5.476562 0.171875 4.5 0.171875 C 3.695312 0.171875 3.019531 0.113281 2.46875 0 C 1.914062 -0.113281 1.34375 -0.3125 0.75 -0.59375 L 0.75 -3.53125 C 1.375 -3.207031 2.023438 -2.953125 2.703125 -2.765625 C 3.378906 -2.585938 4.003906 -2.5 4.578125 -2.5 C 5.066406 -2.5 5.421875 -2.582031 5.640625 -2.75 C 5.867188 -2.925781 5.984375 -3.148438 5.984375 -3.421875 C 5.984375 -3.585938 5.9375 -3.734375 5.84375 -3.859375 C 5.757812 -3.984375 5.613281 -4.109375 5.40625 -4.234375 C 5.207031 -4.359375 4.671875 -4.617188 3.796875 -5.015625 C 2.992188 -5.378906 2.394531 -5.726562 2 -6.0625 C 1.601562 -6.40625 1.304688 -6.796875 1.109375 -7.234375 C 0.921875 -7.671875 0.828125 -8.191406 0.828125 -8.796875 C 0.828125 -9.910156 1.234375 -10.78125 2.046875 -11.40625 C 2.867188 -12.039062 3.992188 -12.359375 5.421875 -12.359375 C 6.679688 -12.359375 7.96875 -12.066406 9.28125 -11.484375 L 8.265625 -8.9375 C 7.128906 -9.457031 6.148438 -9.71875 5.328125 -9.71875 C 4.898438 -9.71875 4.585938 -9.640625 4.390625 -9.484375 C 4.191406 -9.335938 4.09375 -9.15625 4.09375 -8.9375 C 4.09375 -8.695312 4.21875 -8.484375 4.46875 -8.296875 C 4.71875 -8.109375 5.390625 -7.765625 6.484375 -7.265625 C 7.535156 -6.796875 8.265625 -6.289062 8.671875 -5.75 C 9.078125 -5.207031 9.28125 -4.523438 9.28125 -3.703125 Z M 9.28125 -3.703125 "/></g></g><g transform="translate(44.510376, 25.347281)"><g><path d="M 10.15625 -8.3125 C 10.15625 -6.945312 9.753906 -5.894531 8.953125 -5.15625 C 8.148438 -4.414062 7.007812 -4.046875 5.53125 -4.046875 L 4.609375 -4.046875 L 4.609375 0 L 1.3125 0 L 1.3125 -12.1875 L 5.53125 -12.1875 C 7.070312 -12.1875 8.226562 -11.847656 9 -11.171875 C 9.769531 -10.503906 10.15625 -9.550781 10.15625 -8.3125 Z M 4.609375 -6.71875 L 5.203125 -6.71875 C 5.703125 -6.71875 6.097656 -6.859375 6.390625 -7.140625 C 6.679688 -7.421875 6.828125 -7.804688 6.828125 -8.296875 C 6.828125 -9.109375 6.367188 -9.515625 5.453125 -9.515625 L 4.609375 -9.515625 Z M 4.609375 -6.71875 "/></g></g><g transform="translate(55.294544, 25.347281)"><g><path d="M 12.71875 -6.109375 C 12.71875 -4.054688 12.210938 -2.492188 11.203125 -1.421875 C 10.203125 -0.359375 8.734375 0.171875 6.796875 0.171875 C 4.878906 0.171875 3.410156 -0.363281 2.390625 -1.4375 C 1.367188 -2.507812 0.859375 -4.070312 0.859375 -6.125 C 0.859375 -8.15625 1.363281 -9.703125 2.375 -10.765625 C 3.394531 -11.835938 4.875 -12.375 6.8125 -12.375 C 8.75 -12.375 10.21875 -11.84375 11.21875 -10.78125 C 12.21875 -9.71875 12.71875 -8.160156 12.71875 -6.109375 Z M 4.328125 -6.109375 C 4.328125 -3.753906 5.148438 -2.578125 6.796875 -2.578125 C 7.628906 -2.578125 8.242188 -2.863281 8.640625 -3.4375 C 9.046875 -4.007812 9.25 -4.898438 9.25 -6.109375 C 9.25 -7.328125 9.039062 -8.222656 8.625 -8.796875 C 8.21875 -9.378906 7.613281 -9.671875 6.8125 -9.671875 C 5.15625 -9.671875 4.328125 -8.484375 4.328125 -6.109375 Z M 4.328125 -6.109375 "/></g></g><g transform="translate(68.895597, 25.347281)"><g><path d="M 6.6875 0 L 3.40625 0 L 3.40625 -9.484375 L 0.421875 -9.484375 L 0.421875 -12.1875 L 9.65625 -12.1875 L 9.65625 -9.484375 L 6.6875 -9.484375 Z M 6.6875 0 "/></g></g><g transform="translate(78.979711, 25.347281)"><g><path d="M 1.3125 0 L 1.3125 -12.1875 L 4.625 -12.1875 L 4.625 0 Z M 1.3125 0 "/></g></g><g transform="translate(84.921838, 25.347281)"><g><path d="M 4.5625 0 L 1.3125 0 L 1.3125 -12.1875 L 8.515625 -12.1875 L 8.515625 -9.546875 L 4.5625 -9.546875 L 4.5625 -7.21875 L 8.203125 -7.21875 L 8.203125 -4.578125 L 4.5625 -4.578125 Z M 4.5625 0 "/></g></g><g transform="translate(94.12255, 25.347281)"><g><path d="M 5.671875 -7.671875 L 7.765625 -12.1875 L 11.328125 -12.1875 L 7.328125 -4.75 L 7.328125 0 L 4 0 L 4 -4.65625 L 0 -12.1875 L 3.578125 -12.1875 Z M 5.671875 -7.671875 "/></g></g></g><g clip-path="url(#84707f00eb)"><path fill="#040084" d="M 17.964844 5.863281 C 10.398438 5.863281 4.210938 12.050781 4.210938 19.617188 C 4.210938 27.179688 10.398438 33.367188 17.964844 33.367188 C 25.527344 33.367188 31.71875 27.179688 31.71875 19.617188 C 31.71875 12.050781 25.527344 5.863281 17.964844 5.863281 Z M 23.542969 25.675781 C 23.285156 25.675781 23.15625 25.546875 22.898438 25.417969 C 20.957031 24.25 18.5 23.605469 15.910156 23.605469 C 14.488281 23.605469 12.9375 23.863281 11.644531 24.121094 C 11.382812 24.121094 11.125 24.25 10.996094 24.25 C 10.480469 24.25 10.089844 23.863281 10.089844 23.347656 C 10.089844 22.828125 10.351562 22.441406 10.867188 22.441406 C 12.550781 22.054688 14.230469 21.796875 16.042969 21.796875 C 19.015625 21.796875 21.734375 22.570312 24.0625 23.863281 C 24.320312 24.125 24.582031 24.253906 24.582031 24.769531 C 24.320312 25.417969 23.929688 25.675781 23.542969 25.675781 Z M 24.964844 22.054688 C 24.707031 22.054688 24.449219 21.925781 24.191406 21.796875 C 21.992188 20.371094 18.886719 19.597656 15.523438 19.597656 C 13.839844 19.597656 12.289062 19.855469 11.125 20.113281 C 10.867188 20.242188 10.738281 20.242188 10.476562 20.242188 C 9.832031 20.242188 9.441406 19.726562 9.441406 19.207031 C 9.441406 18.558594 9.699219 18.300781 10.347656 18.042969 C 11.898438 17.652344 13.453125 17.265625 15.652344 17.265625 C 19.273438 17.265625 22.636719 18.171875 25.484375 19.851562 C 25.871094 20.113281 26.128906 20.5 26.128906 20.890625 C 26 21.535156 25.613281 22.054688 24.964844 22.054688 Z M 26.648438 17.914062 C 26.390625 17.914062 26.261719 17.785156 25.871094 17.652344 C 23.285156 16.230469 19.53125 15.324219 15.910156 15.324219 C 14.097656 15.324219 12.160156 15.585938 10.476562 15.972656 C 10.21875 15.972656 10.089844 16.101562 9.699219 16.101562 C 8.925781 16.230469 8.40625 15.585938 8.40625 14.808594 C 8.40625 14.03125 8.792969 13.644531 9.3125 13.515625 C 11.382812 12.996094 13.582031 12.738281 15.910156 12.738281 C 19.921875 12.738281 24.0625 13.644531 27.296875 15.324219 C 27.683594 15.585938 28.070312 15.972656 28.070312 16.621094 C 27.941406 17.394531 27.421875 17.914062 26.648438 17.914062 Z M 26.648438 17.914062 " fill-opacity="1" fill-rule="nonzero"/></g></svg>