<svg xmlns="http://www.w3.org/2000/svg" xmlns:xlink="http://www.w3.org/1999/xlink" width="500" zoomAndPan="magnify" viewBox="0 0 375 74.999997" height="100" preserveAspectRatio="xMidYMid meet" version="1.0"><defs><g/><clipPath id="07cd476be1"><path d="M 7.5 33 L 12 33 L 12 42 L 7.5 42 Z M 7.5 33 " clip-rule="nonzero"/></clipPath><clipPath id="1f234d26b1"><path d="M 58 12.066406 L 62 12.066406 L 62 63.066406 L 58 63.066406 Z M 58 12.066406 " clip-rule="nonzero"/></clipPath></defs><g clip-path="url(#07cd476be1)"><path fill="#040084" d="M 9.441406 33.789062 C 8.40625 33.789062 7.566406 34.628906 7.566406 35.664062 L 7.566406 39.460938 C 7.566406 40.5 8.40625 41.339844 9.441406 41.339844 C 10.472656 41.339844 11.3125 40.5 11.3125 39.460938 L 11.3125 35.664062 C 11.3125 34.628906 10.472656 33.789062 9.441406 33.789062 Z M 9.441406 33.789062 " fill-opacity="1" fill-rule="nonzero"/></g><path fill="#040084" d="M 16.679688 21.210938 C 15.648438 21.210938 14.808594 22.050781 14.808594 23.089844 L 14.808594 52.039062 C 14.808594 53.074219 15.648438 53.914062 16.679688 53.914062 C 17.714844 53.914062 18.554688 53.074219 18.554688 52.039062 L 18.554688 23.089844 C 18.554688 22.050781 17.714844 21.210938 16.679688 21.210938 Z M 16.679688 21.210938 " fill-opacity="1" fill-rule="nonzero"/><path fill="#040084" d="M 23.921875 27.644531 C 22.886719 27.644531 22.050781 28.484375 22.050781 29.519531 L 22.050781 45.609375 C 22.050781 46.644531 22.886719 47.484375 23.921875 47.484375 C 24.957031 47.484375 25.792969 46.644531 25.792969 45.609375 L 25.792969 29.519531 C 25.792969 28.484375 24.957031 27.644531 23.921875 27.644531 Z M 23.921875 27.644531 " fill-opacity="1" fill-rule="nonzero"/><path fill="#040084" d="M 31.164062 15.441406 C 30.128906 15.441406 29.292969 16.28125 29.292969 17.316406 L 29.292969 57.8125 C 29.292969 58.847656 30.128906 59.6875 31.164062 59.6875 C 32.199219 59.6875 33.035156 58.847656 33.035156 57.8125 L 33.035156 17.316406 C 33.035156 16.28125 32.199219 15.441406 31.164062 15.441406 Z M 31.164062 15.441406 " fill-opacity="1" fill-rule="nonzero"/><path fill="#040084" d="M 38.40625 32.558594 C 37.371094 32.558594 36.53125 33.398438 36.53125 34.4375 L 36.53125 40.691406 C 36.53125 41.726562 37.371094 42.566406 38.40625 42.566406 C 39.4375 42.566406 40.277344 41.726562 40.277344 40.691406 L 40.277344 34.4375 C 40.277344 33.398438 39.4375 32.558594 38.40625 32.558594 Z M 38.40625 32.558594 " fill-opacity="1" fill-rule="nonzero"/><path fill="#040084" d="M 45.648438 21.558594 C 44.613281 21.558594 43.773438 22.398438 43.773438 23.433594 L 43.773438 51.695312 C 43.773438 52.730469 44.613281 53.570312 45.648438 53.570312 C 46.679688 53.570312 47.519531 52.730469 47.519531 51.695312 L 47.519531 23.433594 C 47.519531 22.398438 46.679688 21.558594 45.648438 21.558594 Z M 45.648438 21.558594 " fill-opacity="1" fill-rule="nonzero"/><path fill="#040084" d="M 53.035156 15.441406 C 53.03125 15.441406 53.027344 15.441406 53.023438 15.441406 C 51.992188 15.441406 51.15625 16.273438 51.148438 17.304688 L 50.878906 57.800781 C 50.875 58.835938 51.707031 59.679688 52.742188 59.6875 C 52.746094 59.6875 52.75 59.6875 52.753906 59.6875 C 53.78125 59.6875 54.617188 58.855469 54.625 57.824219 L 54.894531 17.328125 C 54.902344 16.292969 54.070312 15.445312 53.035156 15.441406 Z M 53.035156 15.441406 " fill-opacity="1" fill-rule="nonzero"/><g clip-path="url(#1f234d26b1)"><path fill="#040084" d="M 60.128906 12.066406 C 59.09375 12.066406 58.257812 12.90625 58.257812 13.945312 L 58.257812 61.183594 C 58.257812 62.21875 59.09375 63.058594 60.128906 63.058594 C 61.164062 63.058594 62 62.21875 62 61.183594 L 62 13.945312 C 62 12.90625 61.164062 12.066406 60.128906 12.066406 Z M 60.128906 12.066406 " fill-opacity="1" fill-rule="nonzero"/></g><path fill="#040084" d="M 67.371094 23.453125 C 66.335938 23.453125 65.5 24.292969 65.5 25.332031 L 65.5 49.796875 C 65.5 50.832031 66.335938 51.671875 67.371094 51.671875 C 68.40625 51.671875 69.242188 50.832031 69.242188 49.796875 L 69.242188 25.332031 C 69.242188 24.292969 68.40625 23.453125 67.371094 23.453125 Z M 67.371094 23.453125 " fill-opacity="1" fill-rule="nonzero"/><path fill="#040084" d="M 74.613281 29.519531 C 73.578125 29.519531 72.738281 30.359375 72.738281 31.394531 L 72.738281 43.734375 C 72.738281 44.769531 73.578125 45.609375 74.613281 45.609375 C 75.644531 45.609375 76.484375 44.769531 76.484375 43.734375 L 76.484375 31.394531 C 76.484375 30.359375 75.644531 29.519531 74.613281 29.519531 Z M 74.613281 29.519531 " fill-opacity="1" fill-rule="nonzero"/><path fill="#040084" d="M 81.851562 17.550781 C 80.820312 17.550781 79.980469 18.390625 79.980469 19.429688 L 79.980469 55.699219 C 79.980469 56.738281 80.820312 57.578125 81.851562 57.578125 C 82.886719 57.578125 83.726562 56.738281 83.726562 55.699219 L 83.726562 19.429688 C 83.726562 18.390625 82.886719 17.550781 81.851562 17.550781 Z M 81.851562 17.550781 " fill-opacity="1" fill-rule="nonzero"/><path fill="#040084" d="M 89.09375 24.464844 C 88.0625 24.464844 87.222656 25.304688 87.222656 26.339844 L 87.222656 48.785156 C 87.222656 49.824219 88.0625 50.664062 89.09375 50.664062 C 90.128906 50.664062 90.96875 49.824219 90.96875 48.785156 L 90.96875 26.339844 C 90.96875 25.304688 90.128906 24.464844 89.09375 24.464844 Z M 89.09375 24.464844 " fill-opacity="1" fill-rule="nonzero"/><path fill="#040084" d="M 96.335938 30.835938 C 95.300781 30.835938 94.464844 31.675781 94.464844 32.714844 L 94.464844 42.414062 C 94.464844 43.453125 95.300781 44.292969 96.335938 44.292969 C 97.371094 44.292969 98.207031 43.453125 98.207031 42.414062 L 98.207031 32.714844 C 98.207031 31.675781 97.371094 30.835938 96.335938 30.835938 Z M 96.335938 30.835938 " fill-opacity="1" fill-rule="nonzero"/><path fill="#040084" d="M 103.578125 15.441406 C 102.542969 15.441406 101.707031 16.28125 101.707031 17.316406 L 101.707031 57.8125 C 101.707031 58.847656 102.542969 59.6875 103.578125 59.6875 C 104.613281 59.6875 105.449219 58.847656 105.449219 57.8125 L 105.449219 17.316406 C 105.449219 16.28125 104.613281 15.441406 103.578125 15.441406 Z M 103.578125 15.441406 " fill-opacity="1" fill-rule="nonzero"/><path fill="#040084" d="M 110.820312 26.960938 C 109.785156 26.960938 108.945312 27.800781 108.945312 28.835938 L 108.945312 46.292969 C 108.945312 47.328125 109.785156 48.167969 110.820312 48.167969 C 111.851562 48.167969 112.691406 47.328125 112.691406 46.292969 L 112.691406 28.835938 C 112.691406 27.800781 111.851562 26.960938 110.820312 26.960938 Z M 110.820312 26.960938 " fill-opacity="1" fill-rule="nonzero"/><path fill="#040084" d="M 118.058594 34.316406 C 117.027344 34.316406 116.1875 35.15625 116.1875 36.195312 L 116.1875 38.933594 C 116.1875 39.972656 117.027344 40.8125 118.058594 40.8125 C 119.09375 40.8125 119.933594 39.972656 119.933594 38.933594 L 119.933594 36.195312 C 119.933594 35.15625 119.09375 34.316406 118.058594 34.316406 Z M 118.058594 34.316406 " fill-opacity="1" fill-rule="nonzero"/><g fill="#040084" fill-opacity="1"><g transform="translate(129.21116, 46.189403)"><g><path d="M 2.421875 -22.390625 L 10.234375 -22.390625 C 13.273438 -22.390625 15.53125 -21.9375 17 -21.03125 C 18.476562 -20.125 19.21875 -18.71875 19.21875 -16.8125 C 19.21875 -15.550781 18.894531 -14.476562 18.25 -13.59375 C 17.601562 -12.707031 16.753906 -12.132812 15.703125 -11.875 L 15.703125 -11.734375 C 17.097656 -11.359375 18.101562 -10.742188 18.71875 -9.890625 C 19.34375 -9.035156 19.65625 -7.921875 19.65625 -6.546875 C 19.65625 -4.515625 18.890625 -2.914062 17.359375 -1.75 C 15.835938 -0.582031 13.757812 0 11.125 0 L 2.421875 0 Z M 8.46875 -13.796875 L 10.296875 -13.796875 C 11.160156 -13.796875 11.828125 -13.972656 12.296875 -14.328125 C 12.773438 -14.691406 13.015625 -15.222656 13.015625 -15.921875 C 13.015625 -17.179688 12.066406 -17.8125 10.171875 -17.8125 L 8.46875 -17.8125 Z M 8.46875 -9.375 L 8.46875 -4.671875 L 10.59375 -4.671875 C 12.476562 -4.671875 13.421875 -5.46875 13.421875 -7.0625 C 13.421875 -7.800781 13.164062 -8.367188 12.65625 -8.765625 C 12.15625 -9.171875 11.425781 -9.375 10.46875 -9.375 Z M 8.46875 -9.375 "/></g></g><g transform="translate(150.342409, 46.189403)"><g><path d="M 15.703125 0 L 2.421875 0 L 2.421875 -22.390625 L 15.703125 -22.390625 L 15.703125 -17.53125 L 8.46875 -17.53125 L 8.46875 -14.015625 L 15.171875 -14.015625 L 15.171875 -9.15625 L 8.46875 -9.15625 L 8.46875 -4.9375 L 15.703125 -4.9375 Z M 15.703125 0 "/></g></g><g transform="translate(167.553659, 46.189403)"><g><path d="M 16.15625 0 L 15.046875 -4.203125 L 7.78125 -4.203125 L 6.640625 0 L 0 0 L 7.296875 -22.484375 L 15.375 -22.484375 L 22.765625 0 Z M 13.796875 -9.15625 L 12.828125 -12.828125 C 12.609375 -13.648438 12.335938 -14.707031 12.015625 -16 C 11.691406 -17.300781 11.476562 -18.226562 11.375 -18.78125 C 11.28125 -18.257812 11.097656 -17.398438 10.828125 -16.203125 C 10.554688 -15.015625 9.957031 -12.664062 9.03125 -9.15625 Z M 13.796875 -9.15625 "/></g></g><g transform="translate(190.323345, 46.189403)"><g><path d="M 12.296875 0 L 6.25 0 L 6.25 -17.4375 L 0.78125 -17.4375 L 0.78125 -22.390625 L 17.75 -22.390625 L 17.75 -17.4375 L 12.296875 -17.4375 Z M 12.296875 0 "/></g></g><g transform="translate(208.851469, 46.189403)"><g/></g><g transform="translate(216.997719, 46.189403)"><g><path d="M 17.0625 -6.796875 C 17.0625 -5.410156 16.707031 -4.175781 16 -3.09375 C 15.289062 -2.019531 14.273438 -1.179688 12.953125 -0.578125 C 11.628906 0.015625 10.070312 0.3125 8.28125 0.3125 C 6.789062 0.3125 5.539062 0.207031 4.53125 0 C 3.519531 -0.21875 2.46875 -0.585938 1.375 -1.109375 L 1.375 -6.5 C 2.53125 -5.90625 3.726562 -5.441406 4.96875 -5.109375 C 6.21875 -4.773438 7.363281 -4.609375 8.40625 -4.609375 C 9.300781 -4.609375 9.957031 -4.765625 10.375 -5.078125 C 10.800781 -5.390625 11.015625 -5.789062 11.015625 -6.28125 C 11.015625 -6.582031 10.925781 -6.847656 10.75 -7.078125 C 10.582031 -7.304688 10.3125 -7.535156 9.9375 -7.765625 C 9.570312 -8.003906 8.582031 -8.488281 6.96875 -9.21875 C 5.507812 -9.882812 4.414062 -10.523438 3.6875 -11.140625 C 2.957031 -11.765625 2.414062 -12.476562 2.0625 -13.28125 C 1.707031 -14.09375 1.53125 -15.050781 1.53125 -16.15625 C 1.53125 -18.21875 2.28125 -19.820312 3.78125 -20.96875 C 5.28125 -22.125 7.34375 -22.703125 9.96875 -22.703125 C 12.28125 -22.703125 14.644531 -22.164062 17.0625 -21.09375 L 15.203125 -16.4375 C 13.109375 -17.394531 11.300781 -17.875 9.78125 -17.875 C 9 -17.875 8.425781 -17.734375 8.0625 -17.453125 C 7.707031 -17.179688 7.53125 -16.84375 7.53125 -16.4375 C 7.53125 -15.988281 7.753906 -15.59375 8.203125 -15.25 C 8.660156 -14.90625 9.894531 -14.273438 11.90625 -13.359375 C 13.84375 -12.484375 15.1875 -11.546875 15.9375 -10.546875 C 16.6875 -9.554688 17.0625 -8.304688 17.0625 -6.796875 Z M 17.0625 -6.796875 "/></g></g><g transform="translate(235.097093, 46.189403)"><g><path d="M 12.296875 0 L 6.25 0 L 6.25 -17.4375 L 0.78125 -17.4375 L 0.78125 -22.390625 L 17.75 -22.390625 L 17.75 -17.4375 L 12.296875 -17.4375 Z M 12.296875 0 "/></g></g><g transform="translate(253.625217, 46.189403)"><g><path d="M 8.46875 -8.140625 L 8.46875 0 L 2.421875 0 L 2.421875 -22.390625 L 9.75 -22.390625 C 15.832031 -22.390625 18.875 -20.179688 18.875 -15.765625 C 18.875 -13.171875 17.609375 -11.164062 15.078125 -9.75 L 21.609375 0 L 14.75 0 L 10 -8.140625 Z M 8.46875 -12.6875 L 9.59375 -12.6875 C 11.707031 -12.6875 12.765625 -13.625 12.765625 -15.5 C 12.765625 -17.039062 11.726562 -17.8125 9.65625 -17.8125 L 8.46875 -17.8125 Z M 8.46875 -12.6875 "/></g></g><g transform="translate(274.848341, 46.189403)"><g><path d="M 15.703125 0 L 2.421875 0 L 2.421875 -22.390625 L 15.703125 -22.390625 L 15.703125 -17.53125 L 8.46875 -17.53125 L 8.46875 -14.015625 L 15.171875 -14.015625 L 15.171875 -9.15625 L 8.46875 -9.15625 L 8.46875 -4.9375 L 15.703125 -4.9375 Z M 15.703125 0 "/></g></g><g transform="translate(292.059591, 46.189403)"><g><path d="M 15.703125 0 L 2.421875 0 L 2.421875 -22.390625 L 15.703125 -22.390625 L 15.703125 -17.53125 L 8.46875 -17.53125 L 8.46875 -14.015625 L 15.171875 -14.015625 L 15.171875 -9.15625 L 8.46875 -9.15625 L 8.46875 -4.9375 L 15.703125 -4.9375 Z M 15.703125 0 "/></g></g><g transform="translate(309.27084, 46.189403)"><g><path d="M 12.296875 0 L 6.25 0 L 6.25 -17.4375 L 0.78125 -17.4375 L 0.78125 -22.390625 L 17.75 -22.390625 L 17.75 -17.4375 L 12.296875 -17.4375 Z M 12.296875 0 "/></g></g><g transform="translate(327.798964, 46.189403)"><g><path d="M 17.0625 -6.796875 C 17.0625 -5.410156 16.707031 -4.175781 16 -3.09375 C 15.289062 -2.019531 14.273438 -1.179688 12.953125 -0.578125 C 11.628906 0.015625 10.070312 0.3125 8.28125 0.3125 C 6.789062 0.3125 5.539062 0.207031 4.53125 0 C 3.519531 -0.21875 2.46875 -0.585938 1.375 -1.109375 L 1.375 -6.5 C 2.53125 -5.90625 3.726562 -5.441406 4.96875 -5.109375 C 6.21875 -4.773438 7.363281 -4.609375 8.40625 -4.609375 C 9.300781 -4.609375 9.957031 -4.765625 10.375 -5.078125 C 10.800781 -5.390625 11.015625 -5.789062 11.015625 -6.28125 C 11.015625 -6.582031 10.925781 -6.847656 10.75 -7.078125 C 10.582031 -7.304688 10.3125 -7.535156 9.9375 -7.765625 C 9.570312 -8.003906 8.582031 -8.488281 6.96875 -9.21875 C 5.507812 -9.882812 4.414062 -10.523438 3.6875 -11.140625 C 2.957031 -11.765625 2.414062 -12.476562 2.0625 -13.28125 C 1.707031 -14.09375 1.53125 -15.050781 1.53125 -16.15625 C 1.53125 -18.21875 2.28125 -19.820312 3.78125 -20.96875 C 5.28125 -22.125 7.34375 -22.703125 9.96875 -22.703125 C 12.28125 -22.703125 14.644531 -22.164062 17.0625 -21.09375 L 15.203125 -16.4375 C 13.109375 -17.394531 11.300781 -17.875 9.78125 -17.875 C 9 -17.875 8.425781 -17.734375 8.0625 -17.453125 C 7.707031 -17.179688 7.53125 -16.84375 7.53125 -16.4375 C 7.53125 -15.988281 7.753906 -15.59375 8.203125 -15.25 C 8.660156 -14.90625 9.894531 -14.273438 11.90625 -13.359375 C 13.84375 -12.484375 15.1875 -11.546875 15.9375 -10.546875 C 16.6875 -9.554688 17.0625 -8.304688 17.0625 -6.796875 Z M 17.0625 -6.796875 "/></g></g></g></svg>